# xmcd CD database file generated by Grip 2.96
# 
# Track frame offsets:
#       150
#       20187
#       39357
#       52500
#       74157
#       89257
#       117110
#       134920
#       155987
#       170965
# 
# Disc length: 2447 seconds
# 
# Revision: 0
# Processed by: cddbd v1.5.1PL0 Copyright (c) Steve Scherf et al.
# Submitted via: Grip 2.96
# 
DISCID=95098d0a
DTITLE=Jeannie Burns - Coming Up Close
DYEAR=1900
DGENRE=
TTITLE0=Oh Its You
TTITLE1=Crashin and Burnin'
TTITLE2=That's Why
TTITLE3=Coming Up Close
TTITLE4=Mystery Train II
TTITLE5=Blue Norther
TTITLE6=Fix Your Blues
TTITLE7=A Million Years
TTITLE8=Keep Havin' this Dream
TTITLE9=Ella
EXTD=
EXTT0=
EXTT1=
EXTT2=
EXTT3=
EXTT4=
EXTT5=
EXTT6=
EXTT7=
EXTT8=
EXTT9=
PLAYORDER=
